# xmcd
#
# Track frame offsets: 
#        150
#        4705
#        43255
#        84667
#        114228
#
# Disc length: 2170 seconds
#
# Revision: 0
# Processed by: cddbd v1.5.2PL0 Copyright (c) Steve Scherf et al.
# Submitted via: ExactAudioCopy v0.99pb4
#
DISCID=33087805
DTITLE=The March of Echoes - The March of Echoes
DYEAR=2007
DGENRE=Death Metal
TTITLE0=(intro)
TTITLE1=The Architecht
TTITLE2=Sea of Mountains
TTITLE3=For We Are Many
TTITLE4=Breathing Under Water
EXTD=
EXTT0=
EXTT1=
EXTT2=
EXTT3=
EXTT4=
PLAYORDER=
